{"title":"Wentworth S04E11 Eleventh Hour 720p HDTV HEVC 2CH x265 [720P][HE","uid":15409641,"size":414700793,"categoryP":"video","categoryS":"hd___tv_shows","magnet":"?xt=urn:btih:e2e10a3511a05bc77671cd5a795ab9e02eba1cdc&amp;dn=Wentworth+S04E11+Eleventh+Hour+720p+HDTV+HEVC+2CH+x265+%5B720P%5D%5BHE&amp;tr=udp%3A%2F%2Ftracker.leechers-paradise.org%3A6969&amp;tr=udp%3A%2F%2Fzer0day.ch%3A1337&amp;tr=udp%3A%2F%2Fopen.demonii.com%3A1337&amp;tr=udp%3A%2F%2Ftracker.coppersurfer.tk%3A6969&amp;tr=udp%3A%2F%2Fexodus.desync.com%3A6969","seeders":1,"leechers":0,"uploader":"nayhtut","files":1,"time":1469545723,"description":"[Screenshots]\r\n\r\n \nhttps://s32.postimg.org/pxfvzv785/Wentworth_S04_E11_Eleventh_Hour_720p_HDTV_HEVC_2_C.jpg \nhttps://s32.postimg.org/3zjf62s7p/Wentworth_S04_E11_Eleventh_Hour_720p_HDTV_HEVC_2_C.jpg \nhttps://s32.postimg.org/67xlnezbp/Wentworth_S04_E11_Eleventh_Hour_720p_HDTV_HEVC_2_C.jpg\r\n\r\n\r\n\r\nSource:  Wentworth S04E11 Eleventh Hour 720p HDTV x264-Bullrout (1.19 GB)\r\n \r\nComplete name                            : Wentworth.S04E11.Eleventh.Hour.720p.HDTV.HEVC.2CH.x265.mkv\r\nFormat                                   : Matroska\r\nFormat version                           : Version 4 / Version 2\r\nFile size                                : 395 MiB\r\nDuration                                 : 51mn 29s\r\nOverall bit rate                         : 1 074 Kbps\r\nWriting application                      : Lavf57.25.100\r\nWriting library                          : Lavf57.25.100\r\n\r\nVideo\r\n\r\nID                                       : 1\r\nFormat                                   : V_MPEGH/ISO/HEVC\r\nCodec ID                                 : V_MPEGH/ISO/HEVC\r\nDuration                                 : 51mn 29s\r\nBit rate                                 : 861 Kbps\r\nWidth                                    : 1 280 pixels\r\nHeight                                   : 720 pixels\r\nDisplay aspect ratio                     : 16:9\r\nFrame rate                               : 25.000 fps\r\nBits/(Pixel*Frame)                       : 0.037\r\nStream size                              : 317 MiB (80%)\r\nWriting library                          : Lavc57.48.101 libx265\r\nDefault                                  : Yes\r\nForced                                   : No\r\nDURATION                                 : 00:51:29.291000000\r\nNUMBER_OF_FRAMES                         : 77231\r\nNUMBER_OF_BYTES                          : 1130217768\r\n_STATISTICS_WRITING_APP                  : mkvmerge v9.3.1 ('Mask Machine') 64bit\r\n_STATISTICS_WRITING_DATE_UTC             : 2016-07-22 19:37:13\r\n_STATISTICS_TAGS                         : BPS DURATION NUMBER_OF_FRAMES NUMBER_OF_BYTES\r\n\r\nAudio\r\n\r\nID                                       : 2\r\nFormat                                   : AC-3\r\nFormat/Info                              : Audio Coding 3\r\nMode extension                           : CM (complete main)\r\nFormat settings, Endianness              : Big\r\nCodec ID                                 : A_AC3\r\nDuration                                 : 51mn 29s\r\nBit rate mode                            : Constant\r\nBit rate                                 : 192 Kbps\r\nChannel(s)                               : 2 channels\r\nChannel positions                        : Front: L R\r\nSampling rate                            : 48.0 KHz\r\nBit depth                                : 16 bits\r\nCompression mode                         : Lossy\r\nStream size                              : 70.7 MiB (18%)\r\nWriting library                          : Lavc57.24.102 ac3\r\nDefault                                  : Yes\r\nForced                                   : No\r\nDURATION                                 : 00:51:29.311000000\r\nNUMBER_OF_FRAMES                         : 96539\r\nNUMBER_OF_BYTES                          : 148283904\r\n_STATISTICS_WRITING_APP                  : mkvmerge v9.3.1 ('Mask Machine') 64bit\r\n_STATISTICS_WRITING_DATE_UTC             : 2016-07-22 19:37:13\r\n_STATISTICS_TAGS                         : BPS DURATION NUMBER_OF_FRAMES NUMBER_OF_BYTES\r\n\r\nIMDb: http://www.imdb.com/title/tt2433738\r\n\r\n\r\n__--__--__--__--__--__--__--__--__--__--__--__--__--\r\n\r\n\r\nAfter adding torrent with maget link,\r\n\r\nplease add this  following trackers list to the torrent for better seeds.\r\n\r\n\r\nudp://tracker.coppersurfer.tk:6969/announce\r\n\r\nudp://tracker.opentrackr.org:1337/announce\r\n \nhttp://tracker.baravik.org:6970/announce\r\n \nhttp://tracker2.wasabii.com.tw:6969/announce\r\n\r\nudp://9.rarbg.me:2710/announce\r\n\r\n\r\n__--__--__--__--__--__--__--__--__--__--__--__--__--\r\n\r\n\r\nEnjoy!","torrent":{"xt":"urn:btih:e2e10a3511a05bc77671cd5a795ab9e02eba1cdc","amp;dn":"Wentworth+S04E11+Eleventh+Hour+720p+HDTV+HEVC+2CH+x265+%5B720P%5D%5BHE","amp;tr":["udp%3A%2F%2Ftracker.leechers-paradise.org%3A6969","udp%3A%2F%2Fzer0day.ch%3A1337","udp%3A%2F%2Fopen.demonii.com%3A1337","udp%3A%2F%2Ftracker.coppersurfer.tk%3A6969","udp%3A%2F%2Fexodus.desync.com%3A6969"],"infoHash":"e2e10a3511a05bc77671cd5a795ab9e02eba1cdc","infoHashBuffer":{"type":"Buffer","data":[226,225,10,53,17,160,91,199,118,113,205,90,121,90,185,224,46,186,28,220]},"announce":[],"urlList":[]}}